<mxfile host="app.diagrams.net" modified="2022-10-26T11:32:11.969Z" agent="5.0 (Macintosh; Intel Mac OS X 10_15_7) AppleWebKit/537.36 (KHTML, like Gecko) Chrome/106.0.0.0 Safari/537.36" etag="8ecmmPFLYnr8CaSnXWTp" version="20.5.1" type="github">
  <diagram id="aQLhFwXrAB8KFwYGpTy1" name="Page-1">
    <mxGraphModel dx="2036" dy="1896" grid="1" gridSize="10" guides="1" tooltips="1" connect="1" arrows="1" fold="1" page="1" pageScale="1" pageWidth="850" pageHeight="1100" math="0" shadow="0">
      <root>
        <mxCell id="0" />
        <mxCell id="1" parent="0" />
        <mxCell id="Bel5XWQ-Ctn80i2mO8Up-4" style="edgeStyle=orthogonalEdgeStyle;rounded=0;orthogonalLoop=1;jettySize=auto;html=1;exitX=1;exitY=0.5;exitDx=0;exitDy=0;entryX=0.5;entryY=1;entryDx=0;entryDy=0;entryPerimeter=0;" edge="1" parent="1" source="Bel5XWQ-Ctn80i2mO8Up-1" target="Bel5XWQ-Ctn80i2mO8Up-2">
          <mxGeometry relative="1" as="geometry" />
        </mxCell>
        <mxCell id="Bel5XWQ-Ctn80i2mO8Up-29" value="A" style="edgeLabel;html=1;align=center;verticalAlign=middle;resizable=0;points=[];" vertex="1" connectable="0" parent="Bel5XWQ-Ctn80i2mO8Up-4">
          <mxGeometry x="0.0923" y="-1" relative="1" as="geometry">
            <mxPoint as="offset" />
          </mxGeometry>
        </mxCell>
        <mxCell id="Bel5XWQ-Ctn80i2mO8Up-1" value="Sender" style="whiteSpace=wrap;html=1;aspect=fixed;" vertex="1" parent="1">
          <mxGeometry x="50" y="-1010" width="80" height="80" as="geometry" />
        </mxCell>
        <mxCell id="Bel5XWQ-Ctn80i2mO8Up-5" value="A" style="edgeStyle=orthogonalEdgeStyle;rounded=0;orthogonalLoop=1;jettySize=auto;html=1;exitX=0.5;exitY=0;exitDx=0;exitDy=0;exitPerimeter=0;entryX=0;entryY=0.5;entryDx=0;entryDy=0;" edge="1" parent="1" source="Bel5XWQ-Ctn80i2mO8Up-2" target="Bel5XWQ-Ctn80i2mO8Up-3">
          <mxGeometry relative="1" as="geometry" />
        </mxCell>
        <mxCell id="Bel5XWQ-Ctn80i2mO8Up-2" value="" style="shape=cylinder3;whiteSpace=wrap;html=1;boundedLbl=1;backgroundOutline=1;size=15;rotation=90;" vertex="1" parent="1">
          <mxGeometry x="270" y="-1010" width="60" height="80" as="geometry" />
        </mxCell>
        <mxCell id="Bel5XWQ-Ctn80i2mO8Up-3" value="Receiver" style="whiteSpace=wrap;html=1;aspect=fixed;" vertex="1" parent="1">
          <mxGeometry x="480" y="-1010" width="80" height="80" as="geometry" />
        </mxCell>
        <mxCell id="Bel5XWQ-Ctn80i2mO8Up-6" value="Message channel" style="text;html=1;align=center;verticalAlign=middle;resizable=0;points=[];autosize=1;strokeColor=none;fillColor=none;" vertex="1" parent="1">
          <mxGeometry x="230" y="-945" width="120" height="30" as="geometry" />
        </mxCell>
        <mxCell id="Bel5XWQ-Ctn80i2mO8Up-7" value="One-way" style="text;html=1;align=center;verticalAlign=middle;resizable=0;points=[];autosize=1;strokeColor=none;fillColor=none;fontStyle=1" vertex="1" parent="1">
          <mxGeometry x="25" y="-1085" width="70" height="30" as="geometry" />
        </mxCell>
        <mxCell id="Bel5XWQ-Ctn80i2mO8Up-8" value="No response expected&lt;br&gt;Synchronous and Fire-and-forget&amp;nbsp;" style="text;html=1;align=left;verticalAlign=middle;resizable=0;points=[];autosize=1;strokeColor=none;fillColor=none;" vertex="1" parent="1">
          <mxGeometry x="50" y="-920" width="200" height="40" as="geometry" />
        </mxCell>
        <mxCell id="Bel5XWQ-Ctn80i2mO8Up-9" style="edgeStyle=orthogonalEdgeStyle;rounded=0;orthogonalLoop=1;jettySize=auto;html=1;exitX=0.5;exitY=0;exitDx=0;exitDy=0;entryX=0.5;entryY=1;entryDx=0;entryDy=0;entryPerimeter=0;" edge="1" parent="1" source="Bel5XWQ-Ctn80i2mO8Up-10" target="Bel5XWQ-Ctn80i2mO8Up-12">
          <mxGeometry relative="1" as="geometry" />
        </mxCell>
        <mxCell id="Bel5XWQ-Ctn80i2mO8Up-24" value="A," style="edgeLabel;html=1;align=center;verticalAlign=middle;resizable=0;points=[];" vertex="1" connectable="0" parent="Bel5XWQ-Ctn80i2mO8Up-9">
          <mxGeometry x="-0.0439" y="1" relative="1" as="geometry">
            <mxPoint as="offset" />
          </mxGeometry>
        </mxCell>
        <mxCell id="Bel5XWQ-Ctn80i2mO8Up-10" value="Requester" style="whiteSpace=wrap;html=1;aspect=fixed;" vertex="1" parent="1">
          <mxGeometry x="50" y="-785" width="80" height="80" as="geometry" />
        </mxCell>
        <mxCell id="Bel5XWQ-Ctn80i2mO8Up-11" style="edgeStyle=orthogonalEdgeStyle;rounded=0;orthogonalLoop=1;jettySize=auto;html=1;exitX=0.5;exitY=0;exitDx=0;exitDy=0;exitPerimeter=0;entryX=0.5;entryY=0;entryDx=0;entryDy=0;" edge="1" parent="1" source="Bel5XWQ-Ctn80i2mO8Up-12" target="Bel5XWQ-Ctn80i2mO8Up-13">
          <mxGeometry relative="1" as="geometry" />
        </mxCell>
        <mxCell id="Bel5XWQ-Ctn80i2mO8Up-25" value="A" style="edgeLabel;html=1;align=center;verticalAlign=middle;resizable=0;points=[];" vertex="1" connectable="0" parent="Bel5XWQ-Ctn80i2mO8Up-11">
          <mxGeometry x="-0.0698" y="1" relative="1" as="geometry">
            <mxPoint as="offset" />
          </mxGeometry>
        </mxCell>
        <mxCell id="Bel5XWQ-Ctn80i2mO8Up-12" value="" style="shape=cylinder3;whiteSpace=wrap;html=1;boundedLbl=1;backgroundOutline=1;size=15;rotation=90;" vertex="1" parent="1">
          <mxGeometry x="270" y="-860" width="60" height="80" as="geometry" />
        </mxCell>
        <mxCell id="Bel5XWQ-Ctn80i2mO8Up-19" style="edgeStyle=orthogonalEdgeStyle;rounded=0;orthogonalLoop=1;jettySize=auto;html=1;exitX=0.5;exitY=1;exitDx=0;exitDy=0;" edge="1" parent="1" source="Bel5XWQ-Ctn80i2mO8Up-13" target="Bel5XWQ-Ctn80i2mO8Up-17">
          <mxGeometry relative="1" as="geometry" />
        </mxCell>
        <mxCell id="Bel5XWQ-Ctn80i2mO8Up-27" value="B" style="edgeLabel;html=1;align=center;verticalAlign=middle;resizable=0;points=[];" vertex="1" connectable="0" parent="Bel5XWQ-Ctn80i2mO8Up-19">
          <mxGeometry x="0.1704" y="-3" relative="1" as="geometry">
            <mxPoint x="1" as="offset" />
          </mxGeometry>
        </mxCell>
        <mxCell id="Bel5XWQ-Ctn80i2mO8Up-13" value="Responder" style="whiteSpace=wrap;html=1;aspect=fixed;" vertex="1" parent="1">
          <mxGeometry x="480" y="-785" width="80" height="80" as="geometry" />
        </mxCell>
        <mxCell id="Bel5XWQ-Ctn80i2mO8Up-14" value="Message channel" style="text;html=1;align=center;verticalAlign=middle;resizable=0;points=[];autosize=1;strokeColor=none;fillColor=none;" vertex="1" parent="1">
          <mxGeometry x="240" y="-785" width="120" height="30" as="geometry" />
        </mxCell>
        <mxCell id="Bel5XWQ-Ctn80i2mO8Up-15" value="Request-response" style="text;html=1;align=center;verticalAlign=middle;resizable=0;points=[];autosize=1;strokeColor=none;fillColor=none;fontStyle=1" vertex="1" parent="1">
          <mxGeometry x="20" y="-860" width="130" height="30" as="geometry" />
        </mxCell>
        <mxCell id="Bel5XWQ-Ctn80i2mO8Up-16" value="Response expected&lt;br&gt;Response address pattern&lt;br&gt;Correlation ID (E.g.: for aggregation)" style="text;html=1;align=left;verticalAlign=middle;resizable=0;points=[];autosize=1;strokeColor=none;fillColor=none;" vertex="1" parent="1">
          <mxGeometry x="50" y="-630" width="220" height="60" as="geometry" />
        </mxCell>
        <mxCell id="Bel5XWQ-Ctn80i2mO8Up-20" style="edgeStyle=orthogonalEdgeStyle;rounded=0;orthogonalLoop=1;jettySize=auto;html=1;exitX=0.5;exitY=1;exitDx=0;exitDy=0;exitPerimeter=0;entryX=0.5;entryY=1;entryDx=0;entryDy=0;" edge="1" parent="1" source="Bel5XWQ-Ctn80i2mO8Up-17" target="Bel5XWQ-Ctn80i2mO8Up-10">
          <mxGeometry relative="1" as="geometry" />
        </mxCell>
        <mxCell id="Bel5XWQ-Ctn80i2mO8Up-26" value="B" style="edgeLabel;html=1;align=center;verticalAlign=middle;resizable=0;points=[];" vertex="1" connectable="0" parent="Bel5XWQ-Ctn80i2mO8Up-20">
          <mxGeometry x="-0.3351" y="-3" relative="1" as="geometry">
            <mxPoint as="offset" />
          </mxGeometry>
        </mxCell>
        <mxCell id="Bel5XWQ-Ctn80i2mO8Up-17" value="" style="shape=cylinder3;whiteSpace=wrap;html=1;boundedLbl=1;backgroundOutline=1;size=15;rotation=90;" vertex="1" parent="1">
          <mxGeometry x="270" y="-722.5" width="60" height="80" as="geometry" />
        </mxCell>
        <mxCell id="Bel5XWQ-Ctn80i2mO8Up-18" value="Message channel" style="text;html=1;align=center;verticalAlign=middle;resizable=0;points=[];autosize=1;strokeColor=none;fillColor=none;" vertex="1" parent="1">
          <mxGeometry x="230" y="-657.5" width="120" height="30" as="geometry" />
        </mxCell>
        <mxCell id="Bel5XWQ-Ctn80i2mO8Up-30" style="edgeStyle=orthogonalEdgeStyle;rounded=0;orthogonalLoop=1;jettySize=auto;html=1;exitX=1;exitY=0.5;exitDx=0;exitDy=0;entryX=0.5;entryY=1;entryDx=0;entryDy=0;entryPerimeter=0;" edge="1" parent="1" source="Bel5XWQ-Ctn80i2mO8Up-32" target="Bel5XWQ-Ctn80i2mO8Up-35">
          <mxGeometry relative="1" as="geometry" />
        </mxCell>
        <mxCell id="Bel5XWQ-Ctn80i2mO8Up-31" value="C,B,A" style="edgeLabel;html=1;align=center;verticalAlign=middle;resizable=0;points=[];" vertex="1" connectable="0" parent="Bel5XWQ-Ctn80i2mO8Up-30">
          <mxGeometry x="-0.0439" y="1" relative="1" as="geometry">
            <mxPoint as="offset" />
          </mxGeometry>
        </mxCell>
        <mxCell id="Bel5XWQ-Ctn80i2mO8Up-32" value="Sender" style="whiteSpace=wrap;html=1;aspect=fixed;" vertex="1" parent="1">
          <mxGeometry x="50" y="-475" width="80" height="80" as="geometry" />
        </mxCell>
        <mxCell id="Bel5XWQ-Ctn80i2mO8Up-33" style="edgeStyle=orthogonalEdgeStyle;rounded=0;orthogonalLoop=1;jettySize=auto;html=1;exitX=0.5;exitY=0;exitDx=0;exitDy=0;exitPerimeter=0;entryX=0;entryY=0.5;entryDx=0;entryDy=0;" edge="1" parent="1" source="Bel5XWQ-Ctn80i2mO8Up-35" target="Bel5XWQ-Ctn80i2mO8Up-38">
          <mxGeometry relative="1" as="geometry" />
        </mxCell>
        <mxCell id="Bel5XWQ-Ctn80i2mO8Up-34" value="A" style="edgeLabel;html=1;align=center;verticalAlign=middle;resizable=0;points=[];" vertex="1" connectable="0" parent="Bel5XWQ-Ctn80i2mO8Up-33">
          <mxGeometry x="-0.0698" y="1" relative="1" as="geometry">
            <mxPoint as="offset" />
          </mxGeometry>
        </mxCell>
        <mxCell id="Bel5XWQ-Ctn80i2mO8Up-50" style="edgeStyle=orthogonalEdgeStyle;rounded=0;orthogonalLoop=1;jettySize=auto;html=1;exitX=0;exitY=0.5;exitDx=0;exitDy=0;exitPerimeter=0;entryX=0;entryY=0.5;entryDx=0;entryDy=0;" edge="1" parent="1" source="Bel5XWQ-Ctn80i2mO8Up-35" target="Bel5XWQ-Ctn80i2mO8Up-48">
          <mxGeometry relative="1" as="geometry" />
        </mxCell>
        <mxCell id="Bel5XWQ-Ctn80i2mO8Up-52" value="C" style="edgeLabel;html=1;align=center;verticalAlign=middle;resizable=0;points=[];" vertex="1" connectable="0" parent="Bel5XWQ-Ctn80i2mO8Up-50">
          <mxGeometry x="0.3647" y="3" relative="1" as="geometry">
            <mxPoint as="offset" />
          </mxGeometry>
        </mxCell>
        <mxCell id="Bel5XWQ-Ctn80i2mO8Up-51" style="edgeStyle=orthogonalEdgeStyle;rounded=0;orthogonalLoop=1;jettySize=auto;html=1;exitX=1;exitY=0.5;exitDx=0;exitDy=0;exitPerimeter=0;entryX=0;entryY=0.5;entryDx=0;entryDy=0;" edge="1" parent="1" source="Bel5XWQ-Ctn80i2mO8Up-35" target="Bel5XWQ-Ctn80i2mO8Up-49">
          <mxGeometry relative="1" as="geometry" />
        </mxCell>
        <mxCell id="Bel5XWQ-Ctn80i2mO8Up-53" value="B" style="edgeLabel;html=1;align=center;verticalAlign=middle;resizable=0;points=[];" vertex="1" connectable="0" parent="Bel5XWQ-Ctn80i2mO8Up-51">
          <mxGeometry x="0.4286" y="-2" relative="1" as="geometry">
            <mxPoint as="offset" />
          </mxGeometry>
        </mxCell>
        <mxCell id="Bel5XWQ-Ctn80i2mO8Up-35" value="" style="shape=cylinder3;whiteSpace=wrap;html=1;boundedLbl=1;backgroundOutline=1;size=15;rotation=90;" vertex="1" parent="1">
          <mxGeometry x="270" y="-475" width="60" height="80" as="geometry" />
        </mxCell>
        <mxCell id="Bel5XWQ-Ctn80i2mO8Up-38" value="Receiver" style="whiteSpace=wrap;html=1;aspect=fixed;" vertex="1" parent="1">
          <mxGeometry x="480" y="-475" width="80" height="80" as="geometry" />
        </mxCell>
        <mxCell id="Bel5XWQ-Ctn80i2mO8Up-39" value="Queue" style="text;html=1;align=center;verticalAlign=middle;resizable=0;points=[];autosize=1;strokeColor=none;fillColor=none;" vertex="1" parent="1">
          <mxGeometry x="270" y="-400" width="60" height="30" as="geometry" />
        </mxCell>
        <mxCell id="Bel5XWQ-Ctn80i2mO8Up-40" value="Point-to-point (Queue)" style="text;html=1;align=center;verticalAlign=middle;resizable=0;points=[];autosize=1;strokeColor=none;fillColor=none;fontStyle=1" vertex="1" parent="1">
          <mxGeometry x="10" y="-550" width="150" height="30" as="geometry" />
        </mxCell>
        <mxCell id="Bel5XWQ-Ctn80i2mO8Up-41" value="Consumed by only one receiver&lt;br&gt;Easy to scale&lt;br&gt;Flatten peak loads (Buffering load balancer)" style="text;html=1;align=left;verticalAlign=middle;resizable=0;points=[];autosize=1;strokeColor=none;fillColor=none;" vertex="1" parent="1">
          <mxGeometry x="50" y="-320" width="260" height="60" as="geometry" />
        </mxCell>
        <mxCell id="Bel5XWQ-Ctn80i2mO8Up-48" value="Receiver" style="whiteSpace=wrap;html=1;aspect=fixed;" vertex="1" parent="1">
          <mxGeometry x="480" y="-580" width="80" height="80" as="geometry" />
        </mxCell>
        <mxCell id="Bel5XWQ-Ctn80i2mO8Up-49" value="Receiver" style="whiteSpace=wrap;html=1;aspect=fixed;" vertex="1" parent="1">
          <mxGeometry x="480" y="-380" width="80" height="80" as="geometry" />
        </mxCell>
        <mxCell id="Bel5XWQ-Ctn80i2mO8Up-54" style="edgeStyle=orthogonalEdgeStyle;rounded=0;orthogonalLoop=1;jettySize=auto;html=1;exitX=1;exitY=0.5;exitDx=0;exitDy=0;entryX=0.5;entryY=1;entryDx=0;entryDy=0;entryPerimeter=0;" edge="1" parent="1" source="Bel5XWQ-Ctn80i2mO8Up-56" target="Bel5XWQ-Ctn80i2mO8Up-63">
          <mxGeometry relative="1" as="geometry" />
        </mxCell>
        <mxCell id="Bel5XWQ-Ctn80i2mO8Up-55" value="C,B,A" style="edgeLabel;html=1;align=center;verticalAlign=middle;resizable=0;points=[];" vertex="1" connectable="0" parent="Bel5XWQ-Ctn80i2mO8Up-54">
          <mxGeometry x="-0.0439" y="1" relative="1" as="geometry">
            <mxPoint as="offset" />
          </mxGeometry>
        </mxCell>
        <mxCell id="Bel5XWQ-Ctn80i2mO8Up-56" value="Publisher" style="whiteSpace=wrap;html=1;aspect=fixed;" vertex="1" parent="1">
          <mxGeometry x="52.5" y="-175" width="80" height="80" as="geometry" />
        </mxCell>
        <mxCell id="Bel5XWQ-Ctn80i2mO8Up-57" style="edgeStyle=orthogonalEdgeStyle;rounded=0;orthogonalLoop=1;jettySize=auto;html=1;exitX=0.5;exitY=0;exitDx=0;exitDy=0;exitPerimeter=0;entryX=0;entryY=0.5;entryDx=0;entryDy=0;" edge="1" parent="1" source="Bel5XWQ-Ctn80i2mO8Up-63" target="Bel5XWQ-Ctn80i2mO8Up-64">
          <mxGeometry relative="1" as="geometry" />
        </mxCell>
        <mxCell id="Bel5XWQ-Ctn80i2mO8Up-58" value="C,B,A" style="edgeLabel;html=1;align=center;verticalAlign=middle;resizable=0;points=[];" vertex="1" connectable="0" parent="Bel5XWQ-Ctn80i2mO8Up-57">
          <mxGeometry x="-0.0698" y="1" relative="1" as="geometry">
            <mxPoint as="offset" />
          </mxGeometry>
        </mxCell>
        <mxCell id="Bel5XWQ-Ctn80i2mO8Up-59" style="edgeStyle=orthogonalEdgeStyle;rounded=0;orthogonalLoop=1;jettySize=auto;html=1;exitX=0;exitY=0.5;exitDx=0;exitDy=0;exitPerimeter=0;entryX=0;entryY=0.5;entryDx=0;entryDy=0;" edge="1" parent="1" source="Bel5XWQ-Ctn80i2mO8Up-63" target="Bel5XWQ-Ctn80i2mO8Up-69">
          <mxGeometry relative="1" as="geometry">
            <mxPoint x="450" y="-230" as="targetPoint" />
          </mxGeometry>
        </mxCell>
        <mxCell id="Bel5XWQ-Ctn80i2mO8Up-60" value="C,B,A" style="edgeLabel;html=1;align=center;verticalAlign=middle;resizable=0;points=[];" vertex="1" connectable="0" parent="Bel5XWQ-Ctn80i2mO8Up-59">
          <mxGeometry x="0.3647" y="3" relative="1" as="geometry">
            <mxPoint as="offset" />
          </mxGeometry>
        </mxCell>
        <mxCell id="Bel5XWQ-Ctn80i2mO8Up-61" style="edgeStyle=orthogonalEdgeStyle;rounded=0;orthogonalLoop=1;jettySize=auto;html=1;exitX=1;exitY=0.5;exitDx=0;exitDy=0;exitPerimeter=0;entryX=0;entryY=0.5;entryDx=0;entryDy=0;" edge="1" parent="1" source="Bel5XWQ-Ctn80i2mO8Up-63" target="Bel5XWQ-Ctn80i2mO8Up-68">
          <mxGeometry relative="1" as="geometry" />
        </mxCell>
        <mxCell id="Bel5XWQ-Ctn80i2mO8Up-62" value="C,B,A" style="edgeLabel;html=1;align=center;verticalAlign=middle;resizable=0;points=[];" vertex="1" connectable="0" parent="Bel5XWQ-Ctn80i2mO8Up-61">
          <mxGeometry x="0.4286" y="-2" relative="1" as="geometry">
            <mxPoint as="offset" />
          </mxGeometry>
        </mxCell>
        <mxCell id="Bel5XWQ-Ctn80i2mO8Up-63" value="" style="shape=cylinder3;whiteSpace=wrap;html=1;boundedLbl=1;backgroundOutline=1;size=15;rotation=90;" vertex="1" parent="1">
          <mxGeometry x="272.5" y="-175" width="60" height="80" as="geometry" />
        </mxCell>
        <mxCell id="Bel5XWQ-Ctn80i2mO8Up-64" value="Subscriber" style="whiteSpace=wrap;html=1;aspect=fixed;" vertex="1" parent="1">
          <mxGeometry x="482.5" y="-175" width="80" height="80" as="geometry" />
        </mxCell>
        <mxCell id="Bel5XWQ-Ctn80i2mO8Up-65" value="Topic" style="text;html=1;align=center;verticalAlign=middle;resizable=0;points=[];autosize=1;strokeColor=none;fillColor=none;" vertex="1" parent="1">
          <mxGeometry x="277.5" y="-100" width="50" height="30" as="geometry" />
        </mxCell>
        <mxCell id="Bel5XWQ-Ctn80i2mO8Up-66" value="Publish-Subscribe (Topics)" style="text;html=1;align=center;verticalAlign=middle;resizable=0;points=[];autosize=1;strokeColor=none;fillColor=none;fontStyle=1" vertex="1" parent="1">
          <mxGeometry x="-2.5" y="-250" width="180" height="30" as="geometry" />
        </mxCell>
        <mxCell id="Bel5XWQ-Ctn80i2mO8Up-67" value="Consumed by all subscribers&lt;br&gt;Durable subscriber pattern (Persistent topics)" style="text;html=1;align=left;verticalAlign=middle;resizable=0;points=[];autosize=1;strokeColor=none;fillColor=none;" vertex="1" parent="1">
          <mxGeometry x="50" y="-20" width="260" height="40" as="geometry" />
        </mxCell>
        <mxCell id="Bel5XWQ-Ctn80i2mO8Up-68" value="Subscriber" style="whiteSpace=wrap;html=1;aspect=fixed;" vertex="1" parent="1">
          <mxGeometry x="482.5" y="-80" width="80" height="80" as="geometry" />
        </mxCell>
        <mxCell id="Bel5XWQ-Ctn80i2mO8Up-69" value="Subscriber" style="whiteSpace=wrap;html=1;aspect=fixed;" vertex="1" parent="1">
          <mxGeometry x="482.5" y="-275" width="80" height="80" as="geometry" />
        </mxCell>
      </root>
    </mxGraphModel>
  </diagram>
</mxfile>
